<?xml version="1.0" encoding="UTF-8"?>
<svg width="182px" height="25px" viewBox="0 0 182 25" version="1.1" xmlns="http://www.w3.org/2000/svg" xmlns:xlink="http://www.w3.org/1999/xlink">
    <!-- Generator: Sketch 47.1 (45422) - http://www.bohemiancoding.com/sketch -->
    <title>Group 2</title>
    <desc>Created with Sketch.</desc>
    <defs></defs>
    <g id="Article" stroke="none" stroke-width="1" fill="none" fill-rule="evenodd">
        <g transform="translate(-32.000000, -28.000000)" id="Group">
            <g>
                <g id="Group-2" transform="translate(32.000000, 25.000000)">
                    <text id="Features-Copy" font-family="-apple-system, BlinkMacSystemFont, Segoe UI, Roboto, Helvetica Neue, Arial, sans-serif" font-size="24" font-weight="300" fill="#000B2E">
                        <tspan x="121" y="22">Cloud</tspan>
                    </text>
                    <text id="Features-Copy-2" font-family="-apple-system, BlinkMacSystemFont, Segoe UI, Roboto, Helvetica Neue, Arial, sans-serif" font-size="24" font-weight="normal" fill="#000B2E">
                        <tspan x="42" y="22">Weebly</tspan>
                    </text>
                    <path d="M24.0774989,3 C21.8185116,3 19.9268393,4.48844884 19.3391353,6.72112211 C18.3106532,3.3630363 15.6292537,3 14.5273086,3 C13.4069979,3 10.743964,3.3630363 9.69711626,6.72112211 C9.10941225,4.48844884 7.2361057,3 4.95875263,3 C2.18552431,3 0,4.96039604 0,7.46534653 C0,8.57260726 0.275486257,9.4620462 0.606069766,10.4240924 L4.37104862,20.970297 C5.6382854,24.4735974 8.20949047,24.9818482 9.62365326,24.9818482 C11.8459091,24.9818482 13.5906554,23.8564356 14.4905771,21.859736 C15.3904989,23.8745875 17.1352452,25 19.357501,25 C20.7716638,25 23.3428689,24.4735974 24.6101057,20.970297 L28.411816,10.3877888 L28.4485475,10.2970297 C28.485279,10.169967 28.5403763,10.0429043 28.5771078,9.91584158 C28.779131,9.31683168 28.99952,8.66336634 28.99952,7.82838284 C29.0362515,5.0330033 26.9609217,3 24.0774989,3 L24.0774989,3 Z M25.5694228,9.64113786 L21.8556942,19.8468271 C21.4071763,21.0897155 20.6536661,22 19.2363495,22 C17.9087363,22 17.1193448,21.2822757 16.7425897,20.0393873 L14.5179407,13.2472648 L14.4641186,13.2472648 L12.2394696,20.0393873 C11.8447738,21.2822757 11.0553822,21.9824945 9.74570983,21.9824945 C8.32839314,21.9824945 7.574883,21.0722101 7.12636505,19.8293217 L3.44851794,9.69365427 C3.14352574,8.83588621 3,8.3107221 3,7.69803063 C3,6.75273523 3.89703588,6 5.17082683,6 C6.22932917,6 6.98283931,6.68271335 7.21606864,7.68052516 L9.70982839,15.7680525 L9.76365055,15.7680525 L12.2932917,7.85557987 C12.6341654,6.71772429 13.226209,6 14.5,6 C15.773791,6 16.3658346,6.70021882 16.7067083,7.85557987 L19.2363495,15.7680525 L19.2901716,15.7680525 L21.7839314,7.68052516 C22.0171607,6.68271335 22.7706708,6 23.8291732,6 C25.0850234,6 26,6.7702407 26,8.06564551 C25.9820593,8.52078775 25.7667707,8.99343545 25.5694228,9.64113786 L25.5694228,9.64113786 Z" id="Logo-(29-x-22)" fill="#0073FF"></path>
                </g>
            </g>
        </g>
    </g>
</svg>
