<svg id="Layer_1" data-name="Layer 1" xmlns="http://www.w3.org/2000/svg" viewBox="0 0 178.84 23.95"><defs><style>.cls-1,.cls-2{isolation:isolate;font-size:22px;fill:#000b2e;}.cls-1{font-family:Graphik-Regular, Graphik;}.cls-2{font-family:Graphik-Medium, Graphik;}.cls-3{letter-spacing:-0.05em;}.cls-4{fill:#0073ff;}</style></defs><title>weebly_cloud_logo</title><g id="Article"><g id="Group"><g id="Group-2"><text class="cls-1" transform="translate(117 19)">Cloud</text><text class="cls-2" transform="translate(38 19)"><tspan class="cls-3">W</tspan><tspan x="20.02" y="0">eebly</tspan></text><path id="Logo-_29-x-22_" data-name="Logo-(29-x-22)" class="cls-4" d="M24.1,0a4.73,4.73,0,0,0-4.7,3.7A4.75,4.75,0,0,0,14.6,0,4.87,4.87,0,0,0,9.8,3.7,5.1,5.1,0,0,0,5,0,4.74,4.74,0,0,0,0,4.5a10,10,0,0,0,.6,3L4.4,18c1.3,3.5,3.8,4,5.3,4a5.15,5.15,0,0,0,4.9-3.1A5.05,5.05,0,0,0,19.5,22c1.4,0,4-.5,5.3-4L28.6,7.4V7.3c0-.1.1-.3.1-.4A10.53,10.53,0,0,0,29,4.8,4.65,4.65,0,0,0,24.1,0Zm1.5,6.6L21.9,16.8A2.77,2.77,0,0,1,19.3,19a2.46,2.46,0,0,1-2.5-2l-2.2-6.8h-.1L12.2,17a2.47,2.47,0,0,1-2.5,1.9,2.67,2.67,0,0,1-2.6-2.2L3.4,6.7a5.84,5.84,0,0,1-.4-2C3,3.8,3.9,3,5.2,3a2,2,0,0,1,2,1.7l2.5,8.1h.1l2.5-7.9A2.1,2.1,0,0,1,14.5,3a2.1,2.1,0,0,1,2.2,1.9l2.5,7.9h.1l2.5-8.1a2.12,2.12,0,0,1,4.2.4,5.62,5.62,0,0,1-.4,1.5Z" transform="translate(0 0)"/></g></g></g></svg>