<?xml version="1.0" encoding="UTF-8"?>
<svg width="120px" height="42px" viewBox="0 0 120 42" version="1.1" xmlns="http://www.w3.org/2000/svg" xmlns:xlink="http://www.w3.org/1999/xlink">
    <!-- Generator: Sketch 47 (45396) - http://www.bohemiancoding.com/sketch -->
    <title>Page 1</title>
    <desc>Created with Sketch.</desc>
    <defs>
        <polygon id="path-1" points="0 0 0 42 120 42 120 4.93636505e-15"></polygon>
    </defs>
    <g id="Article" stroke="none" stroke-width="1" fill="none" fill-rule="evenodd">
        <g transform="translate(-849.000000, -2949.000000)" id="Page-1">
            <g transform="translate(849.000000, 2949.000000)">
                <mask id="mask-2" fill="white">
                    <use xlink:href="#path-1"></use>
                </mask>
                <g id="Clip-2"></g>
                <path d="M116.50201,15.1441072 L107.848321,36.7026714 C107.417927,37.7798528 106.627252,38.7500455 105.407225,38.7500455 C103.647818,38.7500455 102.714141,37.635696 102.714141,36.5223886 C102.714141,36.0190555 102.857837,35.4806385 103.037631,35.0134315 L105.299974,29.4079894 L99.5910103,15.1441072 C99.4473144,14.7484575 99.339716,14.35385 99.339716,13.8143909 C99.339716,12.5197585 100.704133,11.5867339 101.781506,11.5867339 C103.037631,11.5867339 103.936598,12.2689604 104.365603,13.4187412 L107.920516,23.1567943 L111.726029,13.4187412 C112.157117,12.2689604 113.054349,11.5867339 114.310473,11.5867339 C115.388193,11.5867339 116.752263,12.5197585 116.752263,13.8143909 C116.752263,14.35385 116.68111,14.7484575 116.50201,15.1441072 L116.50201,15.1441072 Z M97.5351864,28.4794806 C97.5351864,30.2034571 96.4269227,31.3539327 94.9201978,31.3539327 C93.4117375,31.3539327 92.3027796,30.2034571 92.3027796,28.4794806 L92.3027796,6.12475395 C92.3027796,4.40008271 93.4117375,3.25030188 94.9201978,3.25030188 C96.4269227,3.25030188 97.5351864,4.40008271 97.5351864,6.12475395 L97.5351864,28.4794806 Z M81.9584068,31.3487222 C80.2000405,31.3487222 78.194892,30.5574229 77.225812,28.9765611 C76.9030168,30.3427508 76.0904752,31.1337028 74.6538628,31.1337028 C73.1457496,31.1337028 72.0954502,29.9832272 72.0954502,28.259598 L72.0954502,6.12475395 C72.0954502,4.40043007 73.1124288,3.25030188 74.6208891,3.25030188 C76.1286553,3.25030188 77.1470222,4.40043007 77.1470222,6.12475395 L77.1470222,13.1672484 C78.5905765,11.9813415 80.3034738,11.3724092 82.0993261,11.3724092 C87.6635525,11.3724092 90.4479218,16.5804648 90.4479218,21.6113638 C90.4479218,26.4988008 87.1647818,31.3487222 81.9584068,31.3487222 L81.9584068,31.3487222 Z M67.9831082,23.1672153 L56.9612125,23.1672153 C57.3204524,25.6949963 59.4387528,26.8621454 61.844098,26.8621454 C64.5014318,26.8621454 66.3326874,24.7390456 67.6960634,24.7390456 C68.8091864,24.7390456 69.8129754,25.8533951 69.8129754,26.9677446 C69.8129754,29.1947068 65.2185231,31.3539327 61.3765655,31.3539327 C55.5610447,31.3539327 51.6833367,27.1198908 51.6833367,21.406418 C51.6833367,16.1604995 55.4891968,11.3929038 60.9461719,11.3929038 C66.5458016,11.3929038 70.2457987,16.5141179 70.2457987,20.8266645 C70.2457987,22.3707055 69.5627224,23.1672153 67.9831082,23.1672153 L67.9831082,23.1672153 Z M41.4760651,26.8621454 C44.1330518,26.8621454 45.9643074,24.7390456 47.3294189,24.7390456 C48.4411535,24.7390456 49.4470251,25.8533951 49.4470251,26.9677446 C49.4470251,29.1947068 44.8511845,31.3539327 41.0092269,31.3539327 C35.1937061,31.3539327 31.3156509,27.1198908 31.3156509,21.406418 C31.3156509,16.1604995 35.1211639,11.3929038 40.5791803,11.3929038 C46.1798513,11.3929038 49.8774188,16.5141179 49.8774188,20.8266645 C49.8774188,22.3707055 49.1957308,23.1672153 47.6150753,23.1672153 L36.5931796,23.1672153 C36.9527666,25.6949963 39.0707199,26.8621454 41.4760651,26.8621454 L41.4760651,26.8621454 Z M30.7183062,15.9402696 L26.2134035,28.6639319 C25.6632632,30.2034571 24.7483296,31.3490696 23.0271021,31.3490696 C21.4145142,31.3490696 20.4624418,30.4497395 19.9869262,28.9088247 L17.2761403,20.440741 L17.2022098,20.440741 L14.4928123,28.9088247 C14.0162555,30.4500868 13.0638359,31.3317013 11.4519423,31.3317013 C9.73036763,31.3317013 8.81508692,30.194773 8.26564082,28.6552477 L3.79718277,16.0090481 C3.43100107,14.9457613 3.24773667,14.2875031 3.24773667,13.5170457 C3.24773667,12.3432967 4.34732306,11.3929038 5.88459202,11.3929038 C7.16674862,11.3929038 8.08237642,12.2387396 8.37566887,13.4850881 L11.4158447,23.5722438 L11.488734,23.5722438 L14.5653545,13.7074022 C14.9690221,12.2779919 15.7010384,11.3929038 17.2400428,11.3929038 C18.778006,11.3929038 19.5103694,12.2762551 19.9129957,13.7056654 L22.9899633,23.5722438 L23.0628525,23.5722438 L26.1040696,13.4850881 C26.3963208,12.2387396 27.3119486,11.3897775 28.5944523,11.3897775 C30.1320684,11.3897775 31.2313077,12.3439914 31.2313077,13.9575056 C31.2313077,14.5435117 30.9737657,15.1322967 30.7183062,15.9402696 L30.7183062,15.9402696 Z M114.310473,8.33643206 C111.722211,8.33643206 109.624389,9.79988421 108.69453,12.2529816 L108.023949,13.9686213 L107.408209,12.2814656 C106.49987,9.84816806 104.343736,8.33643206 101.781506,8.33643206 C101.451422,8.33643206 101.116478,8.37012654 100.782923,8.43577868 L100.782923,6.12475395 C100.782923,2.63303283 98.2623434,0 94.9201978,0 C91.5766639,0 89.05539,2.63303283 89.05539,6.12475395 L89.05539,10.6064676 C87.1259075,8.98913241 84.7320163,8.12210735 82.0993261,8.12210735 C81.5228068,8.12210735 80.9539236,8.16622281 80.395106,8.25306426 L80.395106,6.12475395 C80.395106,2.63303283 77.9123594,0 74.6208891,0 C71.3294189,0 68.8473664,2.63303283 68.8473664,6.12475395 L68.8473664,11.0820114 C66.6176496,9.17532049 63.8676424,8.14260194 60.9461719,8.14260194 C57.4301333,8.14260194 54.1945449,9.61161194 51.8364041,12.2783393 C51.4549504,12.7097676 51.1036936,13.1637747 50.783328,13.6375817 C50.4678217,13.1825325 50.1224655,12.7441568 49.7500362,12.3266231 C47.3408729,9.62863287 44.0837648,8.14260194 40.5791803,8.14260194 C37.9510022,8.14260194 35.4807509,8.96273261 33.4155555,10.4897527 C32.3780985,9.03533207 30.6575652,8.13947564 28.5941052,8.13947564 C25.9044919,8.13947564 23.662974,9.92910429 22.9753854,12.607642 C21.7359211,8.58306178 18.5635033,8.14260194 17.2400428,8.14260194 C15.9169294,8.14260194 12.7459,8.58306178 11.504006,12.6069473 C10.8160703,9.93084112 8.5742053,8.14260194 5.88459202,8.14260194 C2.5847916,8.14260194 0,10.5033 0,13.5170457 C0,14.8502357 0.329042895,15.9142172 0.726462847,17.0681664 L5.2070691,29.7480605 C6.70754635,33.9536184 9.76368843,34.5816558 11.4519423,34.5816558 C14.0999045,34.5816558 16.1630174,33.2244976 17.2393486,30.8189893 C18.3167211,33.2356133 20.3805282,34.5993714 23.0271021,34.5993714 C24.7129263,34.5993714 27.7659445,33.970292 29.2744049,29.74945 L29.7915715,28.2891241 C31.9681833,32.163295 36.0367917,34.6038872 41.0092269,34.6038872 C44.5839239,34.6038872 49.3536575,33.0810355 51.5267984,30.2531304 C53.8439823,32.9698784 57.3072629,34.6038872 61.3765655,34.6038872 C64.1182426,34.6038872 67.5638215,33.707336 70.000752,32.013233 C71.042027,33.4735588 72.7070257,34.3840046 74.6538628,34.3840046 C75.8082897,34.3840046 76.8422758,34.1081962 77.7127817,33.5916632 C78.9911202,34.2367215 80.4568883,34.5990241 81.9584068,34.5990241 C84.9066034,34.5990241 87.6170422,33.4766851 89.7242357,31.411248 C90.687415,33.3443388 92.607179,34.6038872 94.9201978,34.6038872 C97.4272409,34.6038872 99.4716108,33.1230667 100.337257,30.9093044 C100.337257,30.9093044 99.4667515,35.6779423 99.4667515,36.5223886 C99.4667515,39.6452072 102.020305,42 105.407225,42 C107.800769,42 109.840627,40.4708957 110.861771,37.913936 L119.494287,16.4092135 C119.838949,15.6186089 120,14.7915309 120,13.8143909 C120,10.585973 117.001475,8.33643206 114.310473,8.33643206 L114.310473,8.33643206 Z M40.9401556,15.6047143 C38.6424088,15.6047143 37.0975038,17.388785 36.8462095,19.5560003 L45.0681167,19.5560003 C44.7803778,17.388785 43.3444595,15.6047143 40.9401556,15.6047143 L40.9401556,15.6047143 Z M81.2704712,16.1136052 C78.5058861,16.1136052 77.2129697,18.7004383 77.2129697,21.2150194 C77.2129697,23.73099 78.4347323,26.6068315 81.2704712,26.6068315 C83.9645967,26.6068315 85.2929164,23.8022 85.2929164,21.395997 C85.2929164,18.9526259 83.9645967,16.1136052 81.2704712,16.1136052 L81.2704712,16.1136052 Z M61.1270066,15.6047143 C58.8282186,15.6047143 57.2847019,17.388785 57.0341018,19.5560003 L65.2553148,19.5560003 C64.9675759,17.388785 63.5320047,15.6047143 61.1270066,15.6047143 L61.1270066,15.6047143 Z" id="Fill-1" fill="#0073FF" mask="url(#mask-2)"></path>
            </g>
        </g>
    </g>
</svg>