<?xml version="1.0" encoding="utf-8"?>
<!-- Generator: Adobe Illustrator 22.0.1, SVG Export Plug-In . SVG Version: 6.00 Build 0)  -->
<svg version="1.1" id="Layer_1" xmlns="http://www.w3.org/2000/svg" xmlns:xlink="http://www.w3.org/1999/xlink" x="0px" y="0px"
	 viewBox="0 0 178.8 39.2" style="enable-background:new 0 0 178.8 39.2;" xml:space="preserve">
<style type="text/css">
	.st0{fill:#000B2E;}
	.st1{font-family:'Graphik-Regular';}
	.st2{font-size:22px;}
	.st3{font-family:'Graphik-Medium';}
	.st4{fill:#0073FF;}
	.st5{font-size:13px;}
</style>
<title>Group 2</title>
<desc>Created with Sketch.</desc>
<g id="Article">
	<g id="Group" transform="translate(-32.000000, -28.000000)">
		<g>
			<g id="Group-2" transform="translate(32.000000, 25.000000)">
				<text transform="matrix(1 0 0 1 117 22)" class="st0 st1 st2">Cloud</text>
				<text transform="matrix(1 0 0 1 38 22)" class="st0 st3 st2">Weebly</text>
				<path id="Logo-_x28_29-x-22_x29_" class="st4" d="M24.1,3c-2.3,0-4.2,1.5-4.7,3.7c-1-3.4-3.7-3.7-4.8-3.7
					c-1.1,0-3.8,0.4-4.8,3.7C9.1,4.5,7.2,3,5,3C2.2,3,0,5,0,7.5c0,1.1,0.3,2,0.6,3L4.4,21c1.3,3.5,3.8,4,5.3,4c2.2,0,4-1.1,4.9-3.1
					c0.9,2,2.6,3.1,4.9,3.1c1.4,0,4-0.5,5.3-4l3.8-10.6l0-0.1c0-0.1,0.1-0.3,0.1-0.4C28.8,9.3,29,8.7,29,7.8C29,5,27,3,24.1,3
					L24.1,3z M25.6,9.6l-3.7,10.2c-0.4,1.2-1.2,2.2-2.6,2.2c-1.3,0-2.1-0.7-2.5-2l-2.2-6.8h-0.1L12.2,20c-0.4,1.2-1.2,1.9-2.5,1.9
					c-1.4,0-2.2-0.9-2.6-2.2L3.4,9.7C3.1,8.8,3,8.3,3,7.7C3,6.8,3.9,6,5.2,6c1.1,0,1.8,0.7,2,1.7l2.5,8.1h0.1l2.5-7.9
					C12.6,6.7,13.2,6,14.5,6s1.9,0.7,2.2,1.9l2.5,7.9h0.1l2.5-8.1c0.2-1,1-1.7,2-1.7C25.1,6,26,6.8,26,8.1C26,8.5,25.8,9,25.6,9.6
					L25.6,9.6z"/>
				<text transform="matrix(1 0 0 1 39 37.0654)" class="st0 st1 st5">for Designers</text>
			</g>
		</g>
	</g>
</g>
</svg>
